<?xml version="1.0" encoding="UTF-8"?>
<svg width="587px" height="99px" viewBox="0 0 587 99" version="1.1" xmlns="http://www.w3.org/2000/svg" xmlns:xlink="http://www.w3.org/1999/xlink">
    <!-- Generator: Sketch 63.1 (92452) - https://sketch.com -->
    <title>Logo</title>
    <desc>Created with Sketch.</desc>
    <defs>
        <linearGradient x1="-0.0234454609%" y1="49.9889319%" x2="100.013889%" y2="49.9889319%" id="linearGradient-1">
            <stop stop-color="#35C1F1" offset="0%"></stop>
            <stop stop-color="#426FB5" offset="100%"></stop>
        </linearGradient>
        <linearGradient x1="-7.22872735%" y1="63.0952046%" x2="140.526037%" y2="1.9347151%" id="linearGradient-2">
            <stop stop-color="#A94B9B" offset="0%"></stop>
            <stop stop-color="#A4499A" offset="3%"></stop>
            <stop stop-color="#733691" offset="36%"></stop>
            <stop stop-color="#602E8D" offset="52%"></stop>
            <stop stop-color="#352262" offset="100%"></stop>
        </linearGradient>
        <linearGradient x1="72.2317621%" y1="41.8490098%" x2="3.4526921%" y2="64.9720718%" id="linearGradient-3">
            <stop stop-color="#A94B9B" offset="0%"></stop>
            <stop stop-color="#A4499A" offset="3%"></stop>
            <stop stop-color="#733691" offset="36%"></stop>
            <stop stop-color="#602E8D" offset="52%"></stop>
            <stop stop-color="#572B84" offset="57%"></stop>
            <stop stop-color="#442671" offset="71%"></stop>
            <stop stop-color="#392366" offset="85%"></stop>
            <stop stop-color="#352262" offset="100%"></stop>
        </linearGradient>
        <radialGradient cx="8.14673041%" cy="101.726257%" fx="8.14673041%" fy="101.726257%" r="77.3209909%" gradientTransform="translate(0.081467,1.017263),scale(0.717727,1.000000),translate(-0.081467,-1.017263)" id="radialGradient-4">
            <stop stop-color="#000000" offset="0%"></stop>
            <stop stop-color="#000000" stop-opacity="0" offset="100%"></stop>
        </radialGradient>
        <radialGradient cx="-18.6105908%" cy="10.5281628%" fx="-18.6105908%" fy="10.5281628%" r="203.252585%" gradientTransform="translate(-0.186106,0.105282),scale(0.970761,1.000000),translate(0.186106,-0.105282)" id="radialGradient-5">
            <stop stop-color="#FFFFFF" offset="0%"></stop>
            <stop stop-color="#FFFFFF" stop-opacity="0" offset="100%"></stop>
        </radialGradient>
        <radialGradient cx="94.2601134%" cy="14.5926756%" fx="94.2601134%" fy="14.5926756%" r="82.6491892%" gradientTransform="translate(0.942601,0.145927),scale(1.000000,0.816356),translate(-0.942601,-0.145927)" id="radialGradient-6">
            <stop stop-color="#000000" offset="0%"></stop>
            <stop stop-color="#000000" stop-opacity="0" offset="100%"></stop>
        </radialGradient>
        <radialGradient cx="126.014154%" cy="114.820871%" fx="126.014154%" fy="114.820871%" r="230.748821%" gradientTransform="translate(1.260142,1.148209),scale(1.000000,0.750675),translate(-1.260142,-1.148209)" id="radialGradient-7">
            <stop stop-color="#FFFFFF" offset="0%"></stop>
            <stop stop-color="#FFFFFF" stop-opacity="0" offset="100%"></stop>
        </radialGradient>
        <radialGradient cx="91.7587965%" cy="70.8956195%" fx="91.7587965%" fy="70.8956195%" r="170.997321%" gradientTransform="translate(0.917588,0.708956),scale(0.898021,1.000000),translate(-0.917588,-0.708956)" id="radialGradient-8">
            <stop stop-color="#FFFFFF" offset="0%"></stop>
            <stop stop-color="#FFFFFF" stop-opacity="0" offset="100%"></stop>
        </radialGradient>
        <radialGradient cx="-12.4974387%" cy="142.471545%" fx="-12.4974387%" fy="142.471545%" r="610.329919%" gradientTransform="translate(-0.124974,1.424715),scale(1.000000,0.329798),translate(0.124974,-1.424715)" id="radialGradient-9">
            <stop stop-color="#000000" offset="0%"></stop>
            <stop stop-color="#000000" stop-opacity="0" offset="100%"></stop>
        </radialGradient>
        <radialGradient cx="-50.3877892%" cy="123.399015%" fx="-50.3877892%" fy="123.399015%" r="333.374977%" gradientTransform="translate(-0.503878,1.233990),scale(1.000000,0.800565),translate(0.503878,-1.233990)" id="radialGradient-10">
            <stop stop-color="#000000" offset="0%"></stop>
            <stop stop-color="#000000" stop-opacity="0" offset="100%"></stop>
        </radialGradient>
        <radialGradient cx="56.1617849%" cy="-19.7938404%" fx="56.1617849%" fy="-19.7938404%" r="492.83837%" gradientTransform="translate(0.561618,-0.197938),scale(1.000000,0.342718),translate(-0.561618,0.197938)" id="radialGradient-11">
            <stop stop-color="#FFFFFF" offset="0%"></stop>
            <stop stop-color="#FFFFFF" stop-opacity="0" offset="100%"></stop>
        </radialGradient>
        <radialGradient cx="38.0458534%" cy="-23.6119912%" fx="38.0458534%" fy="-23.6119912%" r="292.241071%" gradientTransform="translate(0.380459,-0.236120),scale(1.000000,0.805259),translate(-0.380459,0.236120)" id="radialGradient-12">
            <stop stop-color="#FFFFFF" offset="0%"></stop>
            <stop stop-color="#FFFFFF" stop-opacity="0" offset="100%"></stop>
        </radialGradient>
        <radialGradient cx="53.8734757%" cy="94.0090735%" fx="53.8734757%" fy="94.0090735%" r="111.017018%" gradientTransform="translate(0.538735,0.940091),scale(1.000000,0.994285),translate(-0.538735,-0.940091)" id="radialGradient-13">
            <stop stop-color="#FFFFFF" offset="0%"></stop>
            <stop stop-color="#FFFFFF" stop-opacity="0.93" offset="2%"></stop>
            <stop stop-color="#FFFFFF" stop-opacity="0.74" offset="9%"></stop>
            <stop stop-color="#FFFFFF" stop-opacity="0.56" offset="17%"></stop>
            <stop stop-color="#FFFFFF" stop-opacity="0.41" offset="25%"></stop>
            <stop stop-color="#FFFFFF" stop-opacity="0.28" offset="34%"></stop>
            <stop stop-color="#FFFFFF" stop-opacity="0.18" offset="43%"></stop>
            <stop stop-color="#FFFFFF" stop-opacity="0.1" offset="53%"></stop>
            <stop stop-color="#FFFFFF" stop-opacity="0.04" offset="64%"></stop>
            <stop stop-color="#FFFFFF" stop-opacity="0.01" offset="78%"></stop>
            <stop stop-color="#FFFFFF" stop-opacity="0" offset="100%"></stop>
        </radialGradient>
        <radialGradient cx="14.0113972%" cy="64.6481399%" fx="14.0113972%" fy="64.6481399%" r="122.025631%" gradientTransform="translate(0.140114,0.646481),scale(0.569362,1.000000),translate(-0.140114,-0.646481)" id="radialGradient-14">
            <stop stop-color="#FFFFFF" offset="0%"></stop>
            <stop stop-color="#FFFFFF" stop-opacity="0" offset="100%"></stop>
        </radialGradient>
        <radialGradient cx="-12.5186052%" cy="142.425228%" fx="-12.5186052%" fy="142.425228%" r="609.976355%" gradientTransform="translate(-0.125186,1.424252),scale(1.000000,0.329881),translate(0.125186,-1.424252)" id="radialGradient-15">
            <stop stop-color="#000000" offset="0%"></stop>
            <stop stop-color="#000000" stop-opacity="0" offset="100%"></stop>
        </radialGradient>
        <radialGradient cx="-50.3877892%" cy="123.341523%" fx="-50.3877892%" fy="123.341523%" r="333.374977%" gradientTransform="translate(-0.503878,1.233415),scale(1.000000,0.798598),translate(0.503878,-1.233415)" id="radialGradient-16">
            <stop stop-color="#000000" offset="0%"></stop>
            <stop stop-color="#000000" stop-opacity="0" offset="100%"></stop>
        </radialGradient>
        <radialGradient cx="56.1059423%" cy="-19.8664191%" fx="56.1059423%" fy="-19.8664191%" r="492.348332%" gradientTransform="translate(0.561059,-0.198664),scale(1.000000,0.343175),translate(-0.561059,0.198664)" id="radialGradient-17">
            <stop stop-color="#FFFFFF" offset="0%"></stop>
            <stop stop-color="#FFFFFF" stop-opacity="0" offset="100%"></stop>
        </radialGradient>
        <radialGradient cx="38.0458534%" cy="-23.3827061%" fx="38.0458534%" fy="-23.3827061%" r="292.241071%" gradientTransform="translate(0.380459,-0.233827),scale(1.000000,0.803765),translate(-0.380459,0.233827)" id="radialGradient-18">
            <stop stop-color="#FFFFFF" offset="0%"></stop>
            <stop stop-color="#FFFFFF" stop-opacity="0" offset="100%"></stop>
        </radialGradient>
        <radialGradient cx="13.5381344%" cy="60.6989298%" fx="13.5381344%" fy="60.6989298%" r="76.702208%" gradientTransform="translate(0.135381,0.606989),scale(0.792553,1.000000),translate(-0.135381,-0.606989)" id="radialGradient-19">
            <stop stop-color="#FFFFFF" offset="0%"></stop>
            <stop stop-color="#FFFFFF" stop-opacity="0" offset="100%"></stop>
        </radialGradient>
        <radialGradient cx="-8.58340516%" cy="57.2196938%" fx="-8.58340516%" fy="57.2196938%" r="100.073732%" gradientTransform="translate(-0.085834,0.572197),scale(0.798878,1.000000),translate(0.085834,-0.572197)" id="radialGradient-20">
            <stop stop-color="#FFFFFF" offset="0%"></stop>
            <stop stop-color="#FFFFFF" stop-opacity="0.93" offset="2%"></stop>
            <stop stop-color="#FFFFFF" stop-opacity="0.74" offset="9%"></stop>
            <stop stop-color="#FFFFFF" stop-opacity="0.56" offset="17%"></stop>
            <stop stop-color="#FFFFFF" stop-opacity="0.41" offset="25%"></stop>
            <stop stop-color="#FFFFFF" stop-opacity="0.28" offset="34%"></stop>
            <stop stop-color="#FFFFFF" stop-opacity="0.18" offset="43%"></stop>
            <stop stop-color="#FFFFFF" stop-opacity="0.1" offset="53%"></stop>
            <stop stop-color="#FFFFFF" stop-opacity="0.04" offset="64%"></stop>
            <stop stop-color="#FFFFFF" stop-opacity="0.01" offset="78%"></stop>
            <stop stop-color="#FFFFFF" stop-opacity="0" offset="100%"></stop>
        </radialGradient>
        <radialGradient cx="85.0735766%" cy="103.696152%" fx="85.0735766%" fy="103.696152%" r="109.687613%" gradientTransform="translate(0.850736,1.036962),scale(0.627705,1.000000),translate(-0.850736,-1.036962)" id="radialGradient-21">
            <stop stop-color="#FFFFFF" offset="0%"></stop>
            <stop stop-color="#FFFFFF" stop-opacity="0" offset="100%"></stop>
        </radialGradient>
        <radialGradient cx="5.77989879%" cy="44.4980453%" fx="5.77989879%" fy="44.4980453%" r="109.149687%" gradientTransform="translate(0.057799,0.444980),scale(0.732032,1.000000),translate(-0.057799,-0.444980)" id="radialGradient-22">
            <stop stop-color="#FFFFFF" offset="0%"></stop>
            <stop stop-color="#FFFFFF" stop-opacity="0" offset="100%"></stop>
        </radialGradient>
    </defs>
    <g id="STYLEGUIDE" stroke="none" stroke-width="1" fill="none" fill-rule="evenodd">
        <g id="01-StreamPicker-–-Logo-+-Farben" transform="translate(-76.000000, -291.000000)" fill-rule="nonzero">
            <g id="Logo" transform="translate(76.000000, 291.000000)">
                <g id="logo-on-side---rgb-copy-2">
                    <g id="logo-on-side---rgb-copy">
                        <path d="M57.0572394,70.3691457 L50.555189,74.1250578 L39.7394129,80.377917 L38.4844473,81.1053189 L36.2716527,82.3852666 C45.0109677,76.4156745 38.9773446,69.2185917 33.167448,64.6443524 C32.6291062,64.2200346 32.1012516,63.8225281 31.5838842,63.4518328 C29.8799624,62.216088 28.100682,61.0878251 26.2563978,60.0736102 L26.2144491,60.0491304 L24.1624579,58.8601079 L23.5646888,58.5103954 L22.0755095,57.6466056 L21.2679968,57.1779909 L15.8216558,54.0305785 L11.8854683,51.7329675 L3.37687129,46.8125129 C1.53250651,45.7505817 0.396505551,43.7831263 0.398510106,41.6542538 L0.398510106,19.192221 C0.398510106,21.3114787 1.20602546,23.364291 2.47846972,25.2807154 C7.20469123,32.3903701 18.3595528,37.6850171 18.8000143,37.8913475 L18.8000143,37.8913475 L20.9149285,39.1153412 L20.9324071,39.1153412 L23.5262358,40.6191048 L23.5437144,40.6191048 L33.1849267,46.2145046 L40.6238316,50.5194652 L40.6238316,50.5194652 L40.9139768,50.6838301 C41.0153529,50.736287 41.064293,50.7677611 41.064293,50.7677611 L41.064293,50.7677611 L42.6478569,51.6805107 L50.5412061,56.2512528 L57.036265,60.0141591 C58.6072124,60.9050884 59.6811044,62.4694968 59.9482047,64.2561715 C60.3496812,66.6970843 59.1983277,69.1316325 57.0572394,70.3691457 Z" id="Path" fill="url(#linearGradient-1)"></path>
                        <path d="M36.2716527,82.3712781 L15.8216558,94.2055485 L10.1131352,97.5068344 L9.32310117,97.9614606 C7.48089885,99.0372444 5.20366715,99.0427769 3.35626359,97.9759568 C1.50886003,96.9091368 0.374703763,94.9336304 0.384449263,92.7997043 L0.384449263,69.3899508 C0.373442126,67.2554005 1.50710059,65.2787404 3.35473702,64.211063 C5.20237345,63.1433857 7.48035818,63.1485896 9.32310117,64.2246974 L15.8216558,67.9806095 L15.8845788,68.0190778 L20.07945,70.4670652 C21.926984,71.533334 24.202616,71.533334 26.05015,70.4670652 L26.2179448,70.3691457 C28.0601579,69.3144459 29.200212,67.356878 29.2088636,65.2334886 C29.2175153,63.1100992 28.0934509,61.1432988 26.2598935,60.0736102 C26.8681498,60.3953457 34.009918,64.2946399 38.0020371,69.3025227 C41.2495665,73.3661817 42.4276262,78.1677341 36.2716527,82.3712781 Z" id="Path" fill="url(#linearGradient-2)"></path>
                        <path d="M84.3833293,54.548153 L84.3099191,54.5936156 L80.8631332,56.5834797 C79.0168738,57.6498446 76.7421884,57.6498446 74.895929,56.5834797 L62.458136,49.3863968 L46.7763093,40.2938722 L24.7532356,27.5573436 C24.7440856,27.5548109 24.7344199,27.5548109 24.7252698,27.5573436 L24.6518596,27.5188752 C24.4071826,27.3805295 24.1510478,27.2635261 23.8862956,27.1691628 C21.5874848,26.2909003 18.9853916,26.9208255 17.3422966,28.7533603 C16.1495569,30.091172 15.6200643,31.8939338 15.8998132,33.6645791 C16.1795622,35.4352244 17.2390067,36.9867449 18.7860314,37.8913475 C18.3455699,37.6850171 7.19070833,32.3903701 2.46448681,25.2807154 C1.19204256,23.364291 0.384466523,21.3114787 0.384466523,19.192221 L0.384466523,5.9730892 C0.374703763,3.83916319 1.50886003,1.86365672 3.35626359,0.796836701 C5.20366715,-0.269983321 7.48089885,-0.264450853 9.32310117,0.811332959 L15.8216558,4.56724502 L56.5538548,28.127375 L77.8777833,40.4617342 L84.3833293,44.2281377 C86.2237677,45.2942301 87.3569465,47.2605932 87.3569465,49.3881453 C87.3569465,51.5156975 86.2237677,53.4820605 84.3833293,54.548153 L84.3833293,54.548153 Z" id="Path" fill="url(#linearGradient-3)"></path>
                        <path d="M56.5538548,28.127375 C52.8309067,32.7855452 48.8877278,37.6920114 46.7658221,40.314855 L24.7427484,27.5783264 C24.7335984,27.5757937 24.7239327,27.5757937 24.7147826,27.5783264 L24.6413724,27.539858 C24.3966954,27.4015122 24.1405606,27.2845089 23.8758084,27.1901455 C21.5842376,26.311689 18.9885964,26.9327248 17.3422966,28.7533603 C16.1495569,30.091172 15.6200643,31.8939338 15.8998132,33.6645791 C16.1795622,35.4352244 17.2390067,36.9867449 18.7860314,37.8913475 C18.3455699,37.6850171 7.19070833,32.3903701 2.46448681,25.2807154 C1.19204256,23.364291 0.384466523,21.3114787 0.384466523,19.192221 L0.384466523,5.9730892 C0.374703763,3.83916319 1.50886003,1.86365672 3.35626359,0.796836701 C5.20366715,-0.269983321 7.48089885,-0.264450853 9.32310117,0.811332959 L15.8216558,4.56724502 L56.5538548,28.127375 Z" id="Path" fill="url(#radialGradient-4)" opacity="0.24"></path>
                        <path d="M20.9149285,39.1223354 C0.870435768,31.1139196 0.384529857,22.1717714 0.384529857,22.1717714 L0.384529857,19.192221 C0.384529857,21.3114787 1.19204256,23.364291 2.46448681,25.2807154 C7.19070833,32.3903701 18.3455699,37.6850171 18.7860314,37.8913475 L18.7860314,37.8913475 L20.9149285,39.1223354 Z" id="Path" fill="url(#radialGradient-5)" opacity="0.53"></path>
                        <path d="M36.2716527,82.3712781 L15.8216558,94.2055485 L10.1131352,97.5068344 L15.8845788,68.0190778 L20.07945,70.4670652 C21.926984,71.533334 24.202616,71.533334 26.05015,70.4670652 L26.2179448,70.3691457 C28.0601579,69.3144459 29.200212,67.356878 29.2088636,65.2334886 C29.2175153,63.1100992 28.0934509,61.1432988 26.2598935,60.0736102 C27.3540558,60.6471387 49.9888814,73.0129721 36.2716527,82.3712781 Z" id="Path" fill="url(#radialGradient-6)" opacity="0.24"></path>
                        <path d="M39.7394129,80.3639285 L38.4844473,81.0913304 L36.2716527,82.3712781 C49.9853857,73.0129721 27.3540558,60.6471387 26.2563978,60.0596217 L26.2144491,60.0351419 L24.1624579,58.8461194 C50.2195994,70.4915451 39.7394129,80.3639285 39.7394129,80.3639285 Z" id="Path" fill="url(#radialGradient-7)" opacity="0.53"></path>
                        <path d="M57.0572394,70.3691457 L50.555189,74.1250578 L46.7098905,76.3387378 L39.7184385,80.377917 L38.4634729,81.1053189 L36.2506784,82.3852666 C44.9899933,76.4156745 38.9563703,69.2185917 33.1464737,64.6443524 L33.1010293,64.605884 C32.9122601,64.4555076 32.7164994,64.3016342 32.5277302,64.1652463 C32.4702539,64.1152614 32.4082253,64.0707703 32.3424567,64.0323555 C32.2061234,63.9169504 32.0593029,63.8085396 31.9194739,63.7106201 L31.8006192,63.6196948 L31.5629098,63.4518328 C31.1084654,63.1231031 30.6714997,62.811859 30.2485169,62.5285919 L30.1611237,62.4726379 C29.9898331,62.3537356 29.8115511,62.2453248 29.6612349,62.1229254 L29.6192862,62.0984455 C29.4479956,61.9795433 29.2697136,61.8711324 29.1054145,61.748733 C28.7558419,61.5179228 28.4062693,61.3011011 28.0846625,61.1122563 C27.9658078,61.0353196 27.8469531,60.9653771 27.7350899,60.8989317 C27.6232267,60.8324863 27.4694147,60.7450582 27.3575515,60.6751157 L27.1862609,60.5771962 C26.6863721,60.2869349 26.3542781,60.1015872 26.2389192,60.0456332 L26.1969705,60.0211534 L24.1449793,58.8321309 L23.5472102,58.4824184 L22.0580309,57.6186286 C21.0547575,56.7863129 20.9393986,56.370155 21.2749883,56.1987959 L21.2749883,56.1987959 C21.4996988,56.1222116 21.7371675,56.0901405 21.9741335,56.1043736 C23.0576576,56.2000736 24.129067,56.4027271 25.1727227,56.7093762 C26.8590166,57.4143543 28.6173373,57.9326802 30.4163117,58.2551053 C30.9565687,58.3469327 31.5045194,58.3855857 32.0523115,58.3705104 C33.4506019,58.3075622 34.149747,57.7585136 34.4189179,56.9996375 C35.1670033,54.9992821 32.9856703,51.5021573 32.9856703,51.5021573 C31.2378073,49.1625808 31.0175766,48.0260152 31.6153457,47.6098574 L31.7167218,47.5504062 L31.7167218,47.5504062 C31.9366975,47.4539802 32.1759671,47.4096976 32.415867,47.4210126 L32.415867,47.4210126 C34.5482598,47.4210126 39.1556266,49.7710805 40.6063529,50.5264595 C40.6282922,50.5436184 40.6516857,50.5588302 40.6762674,50.5719221 L40.7951221,50.6348703 L40.8964982,50.6908243 C40.9978742,50.7432812 41.0468144,50.7747553 41.0468144,50.7747553 L41.0468144,50.7747553 L50.5237275,56.2582471 L57.0187864,60.0211534 C57.1406844,60.0883138 57.2575191,60.1642868 57.368359,60.2484665 C57.5011966,60.3358946 57.6340341,60.430317 57.7528888,60.5247393 C57.8236012,60.5780482 57.8912901,60.6352566 57.9556409,60.6960985 C58.2962425,60.9681367 58.6026074,61.2804956 58.8680254,61.6263337 C58.9449314,61.7277503 59.0218374,61.8431554 59.0917519,61.9480691 C59.1616664,62.0529829 59.217598,62.1509024 59.2805211,62.252319 C59.5349422,62.7152195 59.7254468,63.2104944 59.8468287,63.7246086 C59.8836432,63.8388755 59.9116904,63.9557855 59.9307261,64.074321 C59.9307261,64.1442635 59.9551962,64.214206 59.9691791,64.2841485 C60.3542831,66.7203919 59.1956781,69.1414956 57.0572394,70.3691457 L57.0572394,70.3691457 Z" id="Path" fill="url(#radialGradient-8)" style="mix-blend-mode: soft-light;"></path>
                        <path d="M32.0627986,58.3810018 L32.0627986,58.3810018 C36.3905074,57.0171231 31.4300722,50.2816607 31.4300722,50.2816607 C30.5876023,48.5330983 31.3321919,47.8336734 31.6328243,47.627343 C31.0350552,48.0435008 31.2622774,49.1800664 33.0031489,51.5196429 C32.9961575,51.5126487 37.135097,58.1466945 32.0627986,58.3810018 Z" id="Path" fill="url(#radialGradient-9)" opacity="0.24"></path>
                        <path d="M22.0755095,57.6361142 L21.2679968,57.1674995 C20.5688516,56.4680745 21.1840994,56.2407614 21.2924669,56.2162816 C20.9743558,56.3806464 21.0722362,56.8037985 22.0755095,57.6361142 Z" id="Path" fill="url(#radialGradient-10)" opacity="0.24"></path>
                        <path d="M32.0627986,58.3810018 C37.135097,58.1466945 32.9961575,51.5126487 32.9961575,51.5126487 C31.2482945,49.1730722 31.0280638,48.0365066 31.6258329,47.6203487 L31.7272089,47.5608976 L31.7272089,47.5608976 C31.9471847,47.4644716 32.1864543,47.420189 32.4263541,47.431504 C32.2690465,47.4769666 30.9266877,47.8686446 32.1571832,49.5297789 C32.160679,49.533276 38.8025583,58.7656856 32.0627986,58.3810018 Z" id="Path" fill="url(#radialGradient-11)" opacity="0.53"></path>
                        <path d="M22.5788941,57.9263756 L22.0755095,57.6361142 C21.0722362,56.8037985 20.9568772,56.3876407 21.2924669,56.2162816 L21.2924669,56.2162816 C21.5171774,56.1396972 21.7546461,56.1076261 21.9916121,56.1218592 L21.9916121,56.1218592 C21.9916121,56.1218592 20.2122876,56.1148649 22.5788941,57.9263756 Z" id="Path" fill="url(#radialGradient-12)" opacity="0.53"></path>
                        <path d="M57.0572394,70.3691457 L50.555189,74.1250578 L46.7098905,76.3387378 C46.7098905,76.3387378 55.4946498,69.4598933 34.4154222,57.0241174 C35.1635076,55.023762 32.9821746,51.5266372 32.9821746,51.5266372 C31.2343116,49.1870607 31.0140808,48.0504951 31.61185,47.6343372 L31.713226,47.5748861 L31.713226,47.5748861 C31.9332018,47.4784601 32.1724714,47.4341775 32.4123712,47.4454925 L32.4123712,47.4454925 C34.6531316,47.4454925 39.6065753,50.0298677 40.8021136,50.6593502 L40.9034896,50.7153042 C41.0048657,50.7677611 41.0538058,50.7992352 41.0538058,50.7992352 L41.0538058,50.7992352 L50.530719,56.2827269 L57.0257778,60.0456332 C57.1476758,60.1127937 57.2645105,60.1887666 57.3753504,60.2729464 C57.508188,60.3603745 57.6410256,60.4547968 57.7598803,60.5492192 C57.8305927,60.6025281 57.8982816,60.6597364 57.9626324,60.7205783 C58.2993295,60.9854388 58.6032709,61.2895018 58.8680254,61.6263337 C58.9449314,61.7277503 59.0218374,61.8431554 59.0917519,61.9480691 C59.1616664,62.0529829 59.217598,62.1509024 59.2805211,62.252319 C59.5349422,62.7152195 59.7254468,63.2104944 59.8468287,63.7246086 C59.8836432,63.8388755 59.9116904,63.9557855 59.9307261,64.074321 C59.9307261,64.1442635 59.9551962,64.214206 59.9691791,64.2841485 C60.3542831,66.7203919 59.1956781,69.1414956 57.0572394,70.3691457 L57.0572394,70.3691457 Z" id="Path" fill="url(#radialGradient-13)" style="mix-blend-mode: soft-light;"></path>
                        <path d="M32.9961575,51.5126487 C32.9961575,51.5126487 35.1774905,55.0097735 34.4294051,57.0101289 C34.149747,57.769005 33.4506019,58.3180536 32.0627986,58.3810018 C30.6225595,58.4439501 28.4342351,57.9893238 25.1971928,56.7198675 C24.1535371,56.4132185 23.0821277,56.210565 21.9986036,56.1148649 C21.7616376,56.1006318 21.5241689,56.1327029 21.2994584,56.2092873 L21.2994584,56.2092873 C20.9498858,56.3806464 21.0792276,56.7968043 22.082501,57.62912 L21.2749883,57.1605053 L15.8286472,54.0130929 L11.8854683,51.7329675 C10.5605882,50.9006518 9.6097507,50.3830773 9.4069986,50.2746665 L9.36155416,50.2501866 L7.31305874,49.0646613 L6.71179387,48.7149488 L5.73998205,48.1519117 L5.73998205,48.1519117 L5.23310178,47.8616504 C4.22982843,47.0293346 4.1179652,46.6131768 4.45355489,46.4418177 L4.47103352,46.4418177 C4.69546742,46.3638725 4.93297695,46.3306078 5.17017872,46.3438982 C6.2536521,46.4419499 7.32494566,46.6457528 8.36876798,46.9523979 C11.6058102,48.2218542 13.7941347,48.6729833 15.2308781,48.6100351 C16.6676214,48.5470868 17.3283137,47.9980382 17.5974846,47.2426593 C18.3490656,45.2423039 16.1677326,41.745179 16.1677326,41.745179 C14.4198696,39.4021054 14.1961432,38.2655398 14.7974081,37.849382 C14.8288696,37.8318964 14.8603311,37.8109136 14.8987841,37.793428 L14.8987841,37.793428 C15.1195705,37.6999594 15.3584213,37.6569491 15.5979293,37.6675315 L15.5979293,37.6675315 C17.6289461,37.6675315 21.8902361,39.7867891 23.5472102,40.6540761 L23.5646888,40.6540761 L23.9771845,40.8708978 L24.0750648,40.9268518 C24.1764408,40.9758116 24.2288767,41.0072857 24.2288767,41.0072857 L24.2288767,41.0072857 L33.7057898,46.4942745 L40.2008487,50.2501866 C40.3215489,50.3193279 40.4382581,50.3952193 40.5504213,50.4774997 C40.5753566,50.4926978 40.5987696,50.5102646 40.6203358,50.5299566 L40.6762674,50.568425 C39.2779771,49.8340288 34.5937042,47.4419954 32.4368413,47.4210126 L32.4368413,47.4210126 C32.1969415,47.4096976 31.9576718,47.4539802 31.7376961,47.5504062 L31.7376961,47.5504062 L31.6363201,47.6098574 C31.0280638,48.0365066 31.2552859,49.1730722 32.9961575,51.5126487 Z" id="Path" fill="url(#radialGradient-14)" style="mix-blend-mode: soft-light;"></path>
                        <path d="M15.1959208,48.5960466 L15.1959208,48.5960466 C19.5236296,47.2321679 14.5666901,40.4967055 14.5666901,40.4967055 C13.7207245,38.7481431 14.4653141,38.0487181 14.7659465,37.8388906 C14.1681774,38.2550485 14.3953996,39.391614 16.1362711,41.7346877 C16.1292796,41.7276934 20.2752107,48.3617392 15.1959208,48.5960466 Z" id="Path" fill="url(#radialGradient-15)" opacity="0.24"></path>
                        <path d="M5.2086317,47.851159 L4.401119,47.3825442 C3.70197381,46.6831193 4.31722158,46.4558062 4.42558908,46.4278292 C4.08999939,46.5886969 4.19487117,47.0153461 5.2086317,47.851159 Z" id="Path" fill="url(#radialGradient-16)" opacity="0.24"></path>
                        <path d="M15.1959208,48.5960466 C20.2682192,48.3617392 16.1292796,41.7276934 16.1292796,41.7276934 C14.3814167,39.3846198 14.1611859,38.2305686 14.7589551,37.8318964 C14.7904166,37.8318964 14.8218781,37.793428 14.8603311,37.7759424 L14.8603311,37.7759424 C15.0811846,37.6826996 15.3199841,37.6396984 15.5594763,37.6500459 C15.3986729,37.6955085 14.0563141,38.0871865 15.2868097,39.7483208 C15.2903054,39.7448236 21.9461677,48.9807303 15.1959208,48.5960466 Z" id="Path" fill="url(#radialGradient-17)" opacity="0.53"></path>
                        <path d="M5.71201624,48.1414203 L5.2086317,47.851159 C4.20535835,47.0153461 4.08999939,46.5991883 4.42558908,46.4278292 L4.42558908,46.4278292 C4.65038103,46.3515914 4.88778166,46.3195295 5.12473428,46.3334068 L5.12473428,46.3334068 C5.12473428,46.3334068 3.34540976,46.3299097 5.71201624,48.1414203 Z" id="Path" fill="url(#radialGradient-18)" opacity="0.53"></path>
                        <path d="M32.9961575,51.5126487 C32.9961575,51.5126487 35.1774905,55.0097735 34.4294051,57.0101289 C34.149747,57.769005 33.4506019,58.3180536 32.0627986,58.3810018 C31.5150066,58.3960771 30.9670559,58.3574241 30.4267989,58.2655967 C28.7313718,55.3210176 25.0154151,51.6210595 17.5625273,47.2286708 C18.3141084,45.2283154 16.1327754,41.7311905 16.1327754,41.7311905 C14.3849124,39.3881169 14.1611859,38.2515513 14.7624508,37.8353935 C14.7939123,37.8179079 14.8253739,37.7969251 14.8638268,37.7794395 L14.8638268,37.7794395 C15.0846132,37.6859709 15.323464,37.6429606 15.562972,37.653543 L15.562972,37.653543 C17.5939888,37.653543 21.8552788,39.7728006 23.5122529,40.6400876 L23.5297315,40.6400876 L23.9422272,40.8569093 L24.0401075,40.9128633 C24.1414836,40.9618231 24.1939195,40.9932972 24.1939195,40.9932972 L24.1939195,40.9932972 L33.6708326,46.480286 L40.2008487,50.2501866 C40.3215489,50.3193279 40.4382581,50.3952193 40.5504213,50.4774997 C40.5753566,50.4926978 40.5987696,50.5102646 40.6203358,50.5299566 L40.6203358,50.5299566 C39.1696095,49.7745776 34.5622427,47.4384982 32.4298499,47.4245097 L32.4298499,47.4245097 C32.18995,47.4131948 31.9506804,47.4574774 31.7307047,47.5539034 L31.7307047,47.5539034 L31.6293286,47.6133545 C31.0280638,48.0365066 31.2552859,49.1730722 32.9961575,51.5126487 Z" id="Path" fill="url(#radialGradient-19)" style="mix-blend-mode: soft-light;"></path>
                        <path d="M42.6688312,51.7014934 L27.542825,53.0024238 C3.77188833,41.4269407 0.699145195,32.3519018 0.384529857,29.333883 C0.334087077,28.9777895 0.334087077,28.6163592 0.384529857,28.2602657 L0.384529857,19.192221 C0.384529857,21.3114787 1.19204256,23.364291 2.46448681,25.2807154 C7.19070833,32.3903701 18.3455699,37.6850171 18.7860314,37.8913475 L18.7860314,37.8913475 L20.9009456,39.1153412 L20.9184242,39.1153412 L23.5122529,40.6191048 L23.5297315,40.6191048 L33.1709438,46.2145046 L40.6098486,50.5194652 L40.6098486,50.5194652 L40.8999939,50.6838301 C41.00137,50.736287 41.0503101,50.7677611 41.0503101,50.7677611 L41.0503101,50.7677611 L42.6688312,51.7014934 Z" id="Path" fill="url(#radialGradient-20)" style="mix-blend-mode: soft-light;"></path>
                        <path d="M84.3833293,54.548153 L84.3099191,54.5936156 C69.0580666,45.8193295 24.1205092,20.283324 0.384466523,6.81239916 L0.384466523,5.9730892 C0.374703763,3.83916319 1.50886003,1.86365672 3.35626359,0.796836701 C5.20366715,-0.269983321 7.48089885,-0.264450853 9.32310117,0.811332959 L15.8216558,4.56724502 L56.5538548,28.127375 L77.8777833,40.4617342 L84.3833293,44.2281377 C86.2237677,45.2942301 87.3569465,47.2605932 87.3569465,49.3881453 C87.3569465,51.5156975 86.2237677,53.4820605 84.3833293,54.548153 L84.3833293,54.548153 Z" id="Path" fill="url(#radialGradient-21)" opacity="0.65" style="mix-blend-mode: soft-light;"></path>
                        <path d="M36.2716527,82.3712781 L15.8216558,94.2055485 L10.1131352,97.5068344 L9.32310117,97.9614606 C7.48089885,99.0372444 5.20366715,99.0427769 3.35626359,97.9759568 C1.50886003,96.9091368 0.374703763,94.9336304 0.384466523,92.7997043 L0.384466523,91.0021822 L37.9985413,69.285037 C41.2495665,73.3661817 42.4276262,78.1677341 36.2716527,82.3712781 Z" id="Path" fill="url(#radialGradient-22)" opacity="0.65" style="mix-blend-mode: soft-light;"></path>
                    </g>
                </g>
                <path d="M118.825925,72.7524972 C115.530889,72.7524972 112.34777,72.2845034 109.276472,71.3485017 C106.205173,70.4124999 103.774613,69.1712989 101.984717,67.6248613 L104.730566,61.4594895 C106.479782,62.8431442 108.625591,63.9724337 111.168057,64.8473918 C113.710522,65.7223499 116.263119,66.1598224 118.825925,66.1598224 C121.998922,66.1598224 124.368464,65.6511335 125.934623,64.6337403 C127.500781,63.6163471 128.283849,62.2734083 128.283849,60.6048835 C128.283849,59.3840117 127.846552,58.3768075 126.971943,57.5832408 C126.097335,56.7896742 124.988837,56.1690736 123.646415,55.7214206 C122.471796,55.3297243 120.923456,54.8912972 119.001357,54.4061293 L118.154717,54.1953385 C114.900361,53.4221197 112.266406,52.6489125 110.252774,51.8756937 C108.239141,51.1024749 106.51029,49.8917951 105.06617,48.2436182 C103.622049,46.5954413 102.9,44.3673836 102.9,41.5593785 C102.9,39.1990263 103.540692,37.0523589 104.822094,35.1193119 C106.103497,33.1862648 108.035742,31.6500242 110.618887,30.5105438 C113.202032,29.3710635 116.364811,28.8013319 120.107321,28.8013319 C122.710805,28.8013319 125.273572,29.1268928 127.795698,29.7780244 C130.317824,30.429156 132.494151,31.3651437 134.324717,32.5860155 L131.822943,38.7513873 C129.951689,37.6526027 127.999105,36.8183528 125.965132,36.2486127 C123.93116,35.6788725 121.958236,35.3940067 120.046302,35.3940067 C116.913984,35.3940067 114.585121,35.9230432 113.059642,36.9811321 C111.534162,38.039221 110.771434,39.4432025 110.771434,41.1931188 C110.771434,42.4139906 111.208731,43.4110209 112.08334,44.1842397 C112.957948,44.9574585 114.066446,45.5678853 115.408868,46.0155383 L116.507209,46.3627225 C117.697075,46.7213515 119.16152,47.1143153 120.900566,47.5416204 C124.073563,48.2741435 126.677009,49.0371769 128.710981,49.8307436 C130.744954,50.6243103 132.483974,51.83499 133.928094,53.4628191 C135.372215,55.0906482 136.094264,57.2881845 136.094264,60.0554939 C136.094264,62.4158461 135.453572,64.5523397 134.17217,66.4650388 C132.890767,68.377738 130.948353,69.9038049 128.344868,71.0432852 C125.741383,72.1827656 122.568434,72.7524972 118.825925,72.7524972 Z M152.630377,36.1265261 L138.474,36.1265261 L138.474,29.4117647 L174.719208,29.4117647 L174.719208,36.1265261 L160.56283,36.1265261 L160.56283,72.1420644 L152.630377,72.1420644 L152.630377,36.1265261 Z M208.645698,72.1420644 L199.92,59.6281909 L199.392797,59.6672587 C199.187774,59.6770256 198.953463,59.6835369 198.689861,59.6867925 L188.631509,59.6892342 L188.631509,72.1420644 L180.699057,72.1420644 L180.699057,29.4117647 L198.272491,29.4117647 C201.97432,29.4117647 205.198118,30.0221915 207.943981,31.2430633 C210.689844,32.4639351 212.794974,34.2138251 214.259434,36.4927858 C215.723894,38.7717465 216.456113,41.4779718 216.456113,44.6115427 C216.456113,47.8265052 215.673046,50.5937731 214.106887,52.9134295 C212.540728,55.233086 210.293222,56.9626284 207.364302,58.1021088 L217.18834,72.1420644 L208.645698,72.1420644 Z M208.462642,44.6115427 C208.462642,41.884929 207.567707,39.7891305 205.777811,38.3240844 C203.987916,36.8590382 201.36413,36.1265261 197.906377,36.1265261 L188.631509,36.1265261 L188.631509,53.1576027 L197.906377,53.1576027 C201.36413,53.1576027 203.987916,52.4149168 205.777811,50.9295228 C207.567707,49.4441287 208.462642,47.3381564 208.462642,44.6115427 Z M257.338755,65.4883463 L257.338755,72.1420644 L225.303849,72.1420644 L225.303849,29.4117647 L256.484491,29.4117647 L256.484491,36.0654828 L233.236302,36.0654828 L233.236302,47.1753607 L253.860679,47.1753607 L253.860679,53.7069922 L233.236302,53.7069922 L233.236302,65.4883463 L257.338755,65.4883463 Z M295.847208,62.2530522 L274.490604,62.2530522 L270.280302,72.1420644 L262.103774,72.1420644 L281.324717,29.4117647 L289.135132,29.4117647 L308.417094,72.1420644 L300.118528,72.1420644 L295.847208,62.2530522 Z M293.212302,56.0266371 L285.157811,37.3473918 L277.16434,56.0266371 L293.212302,56.0266371 Z M352.650226,72.1420644 L352.589208,43.81798 L338.554868,67.2586016 L335.015774,67.2586016 L320.981434,44.1842397 L320.981434,72.1420644 L313.415094,72.1420644 L313.415094,29.4117647 L319.944113,29.4117647 L336.907358,57.7358491 L353.565509,29.4117647 L360.094528,29.4117647 L360.155547,72.1420644 L352.650226,72.1420644 Z" id="STREAM" fill="#3E3E3E"></path>
                <path d="M369.807623,29.4117647 L369.807623,72.1420644 L374.689132,72.1420644 L374.689132,58.6514983 L385.855585,58.6514983 C396.411849,58.6514983 402.513736,53.2186459 402.513736,43.7569367 C402.513736,34.6614872 396.411849,29.4117647 385.855585,29.4117647 L369.807623,29.4117647 Z M374.689132,34.1120977 L385.672528,34.1120977 C393.360906,34.1120977 397.815283,37.4084351 397.815283,43.8790233 C397.815283,50.5327414 393.360906,53.9511654 385.672528,53.9511654 L374.689132,53.9511654 L374.689132,34.1120977 Z M415.510755,72.1420644 L415.510755,29.4117647 L410.629245,29.4117647 L410.629245,72.1420644 L415.510755,72.1420644 Z M446.691396,29.2896781 C434.304566,29.2896781 424.419509,38.7513873 424.419509,50.7158713 C424.419509,62.8024417 434.182528,72.3862375 446.50834,72.3862375 C452.42717,72.3862375 458.162943,69.7613762 462.373245,65.7935627 L459.383321,62.436182 C456.027283,65.6104329 451.450868,67.563818 446.752415,67.563818 C437.111434,67.563818 429.362038,60.0554939 429.362038,50.7158713 C429.362038,41.3152053 437.111434,33.8679245 446.752415,33.8679245 C451.450868,33.8679245 456.088302,35.8823529 459.383321,39.2397336 L462.312226,35.5160932 C458.223962,31.6703663 452.549208,29.2896781 446.691396,29.2896781 Z M500.082906,72.1420644 L506.062755,72.1420644 L487.879132,47.9689234 L504.781358,29.4117647 L498.984566,29.4117647 L476.041472,54.0122087 L476.041472,29.4117647 L471.159962,29.4117647 L471.159962,72.1420644 L476.041472,72.1420644 L476.041472,60.9711432 L484.340038,51.8756937 L500.082906,72.1420644 Z M542.796113,34.1120977 L542.796113,29.4117647 L513.812151,29.4117647 L513.812151,72.1420644 L543.589358,72.1420644 L543.589358,67.5027747 L518.69366,67.5027747 L518.69366,52.8523862 L540.233321,52.8523862 L540.233321,48.1520533 L518.69366,48.1520533 L518.69366,34.1120977 L542.796113,34.1120977 Z M581.482075,72.1420644 L587.034792,72.1420644 L577.027698,57.6137625 C583.190604,55.5993341 586.60766,50.8379578 586.60766,43.7569367 C586.60766,34.6614872 580.444755,29.4117647 569.766453,29.4117647 L553.535434,29.4117647 L553.535434,72.1420644 L558.416943,72.1420644 L558.416943,58.6514983 L569.766453,58.6514983 C570.742755,58.6514983 571.719057,58.590455 572.63434,58.5294118 L581.482075,72.1420644 Z M558.416943,53.9511654 L558.416943,34.1120977 L569.766453,34.1120977 C577.515849,34.1120977 581.909208,37.4084351 581.909208,43.8790233 C581.909208,50.5327414 577.515849,53.9511654 569.766453,53.9511654 L558.416943,53.9511654 Z" id="PICKER" fill="#3E3E3E"></path>
            </g>
        </g>
    </g>
</svg>