<svg width="28" height="22" xmlns="http://www.w3.org/2000/svg"><path d="M1.874 14.27l.111.059 2.389 1.382c.41.236 1.01.192 1.361-.021a1.33 1.33 0 00.634-.878c.937.621 2.417 1.832 1.996 3.194l-.058.158-6.322 3.656a1.323 1.323 0 01-1.98-1.02L0 20.673v-5.199a1.323 1.323 0 011.874-1.204zm30.914 0l.112.059 2.388 1.382c.41.236 1.01.192 1.362-.021a1.33 1.33 0 00.633-.878c.937.621 2.418 1.832 1.996 3.194l-.057.158L32.9 21.82a1.323 1.323 0 01-1.98-1.02l-.005-.126v-5.199a1.323 1.323 0 011.873-1.204zm30.915 0l.111.059 2.389 1.382c.41.236 1.01.192 1.361-.021a1.33 1.33 0 00.634-.878c.937.621 2.417 1.832 1.996 3.194l-.058.158-6.322 3.656a1.323 1.323 0 01-1.98-1.02l-.005-.126v-5.199a1.323 1.323 0 011.874-1.204zm30.914 0l.112.059 2.388 1.382c.41.236 1.01.192 1.362-.021a1.33 1.33 0 00.633-.878c.937.621 2.418 1.832 1.996 3.194l-.057.158-6.322 3.656a1.323 1.323 0 01-1.98-1.02l-.005-.126v-5.199a1.323 1.323 0 011.873-1.204zm30.915 0l.111.059 2.389 1.382c.41.236 1.01.192 1.361-.021a1.33 1.33 0 00.634-.878c.937.621 2.417 1.832 1.996 3.194l-.058.158-6.322 3.656a1.323 1.323 0 01-1.98-1.02l-.005-.126v-5.199a1.323 1.323 0 011.874-1.204zM0 4.99c.123.198.286.395.465.605 1.239 1.448 3.55 2.766 3.65 2.812l.001.001h.001l8.553 4.936c.392.231.594.567.65.945.07.469-.105.969-.528 1.277l-.122.079-3.336 1.924c.424-1.818-2.89-3.83-3.43-4.139a1.37 1.37 0 00-.12-.08L.666 10.394a1.329 1.329 0 01-.658-1.008L0 9.246V4.99zm30.915 0c.123.198.285.395.465.605 1.238 1.448 3.55 2.766 3.649 2.812l.002.001 8.554 4.936c.392.231.594.567.65.945.07.469-.106.969-.529 1.277l-.121.079-3.336 1.924c.423-1.818-2.89-3.83-3.43-4.139a1.37 1.37 0 00-.12-.08l-5.119-2.955a1.329 1.329 0 01-.658-1.008l-.007-.141V4.99zm30.914 0c.123.198.286.395.465.605 1.239 1.448 3.55 2.766 3.65 2.812l.001.001h.001l8.553 4.936c.392.231.594.567.65.945.07.469-.105.969-.528 1.277l-.122.079-3.336 1.924c.424-1.818-2.89-3.83-3.43-4.139a1.37 1.37 0 00-.12-.08l-5.118-2.955a1.329 1.329 0 01-.658-1.008l-.008-.141V4.99zm30.915 0c.123.198.285.395.465.605 1.238 1.448 3.55 2.766 3.649 2.812l.002.001 8.554 4.936c.392.231.594.567.65.945.07.469-.106.969-.529 1.277l-.121.079-3.336 1.924c.423-1.818-2.89-3.83-3.43-4.139a1.37 1.37 0 00-.12-.08l-5.119-2.955a1.329 1.329 0 01-.658-1.008l-.007-.141V4.99zm30.914 0c.123.198.286.395.465.605 1.239 1.448 3.55 2.766 3.65 2.812l.001.001h.001l8.553 4.936c.392.231.594.567.65.945.07.469-.105.969-.528 1.277l-.122.079-3.336 1.924c.424-1.818-2.89-3.83-3.43-4.139a1.37 1.37 0 00-.12-.08l-5.118-2.955a1.329 1.329 0 01-.658-1.008l-.008-.141V4.99zM1.877.123l.111.058 16.693 9.706c.84.489.88 1.673.12 2.228l-.12.079-.017.01-.766.444a1.321 1.321 0 01-1.327 0l-.04-.023L5.399 6.154c-.576-.349-1.274-.119-1.627.273a1.414 1.414 0 00-.293.553c-.873-.605-2.34-1.717-3.016-2.95C.215 3.575.047 3.095.008 2.6L0 2.386v-1.05C0 .35 1.015-.28 1.877.122zm30.914 0l.112.058 16.693 9.706c.839.489.879 1.673.12 2.228l-.12.079-.017.01-.766.444a1.321 1.321 0 01-1.328 0l-.04-.023-11.131-6.471c-.577-.349-1.274-.119-1.628.273a1.414 1.414 0 00-.293.553c-.872-.605-2.34-1.717-3.015-2.95-.248-.454-.417-.934-.455-1.43l-.008-.214v-1.05C30.915.35 31.93-.28 32.79.122zm30.915 0l.111.058L80.51 9.887c.84.489.88 1.673.12 2.228l-.12.079-.017.01-.766.444a1.321 1.321 0 01-1.327 0l-.04-.023-11.132-6.471c-.576-.349-1.274-.119-1.627.273a1.414 1.414 0 00-.293.553c-.873-.605-2.34-1.717-3.016-2.95-.248-.454-.416-.934-.455-1.43l-.008-.214v-1.05c0-.985 1.015-1.615 1.877-1.213zm30.914 0l.112.058 16.693 9.706c.839.489.879 1.673.12 2.228l-.12.079-.017.01-.766.444a1.321 1.321 0 01-1.328 0l-.04-.023-11.131-6.471c-.577-.349-1.274-.119-1.628.273a1.414 1.414 0 00-.293.553c-.872-.605-2.34-1.717-3.015-2.95-.248-.454-.417-.934-.455-1.43l-.008-.214v-1.05c0-.985 1.015-1.615 1.876-1.213zm30.915 0l.111.058 16.693 9.706c.84.489.88 1.673.12 2.228l-.12.079-.017.01-.766.444a1.321 1.321 0 01-1.327 0l-.04-.023-11.132-6.471c-.576-.349-1.274-.119-1.627.273a1.414 1.414 0 00-.293.553c-.873-.605-2.34-1.717-3.016-2.95-.248-.454-.416-.934-.455-1.43l-.008-.214v-1.05c0-.985 1.015-1.615 1.877-1.213z" fill="#E6E6E6" fill-rule="evenodd"/></svg>
